<?xml version="1.0" encoding="UTF-8"?>
<!DOCTYPE svg PUBLIC "-//W3C//DTD SVG 1.1//EN" "http://www.w3.org/Graphics/SVG/1.1/DTD/svg11.dtd">
<svg xmlns="http://www.w3.org/2000/svg" version="1.1" width="1024px" height="1024px" style="shape-rendering:geometricPrecision; text-rendering:geometricPrecision; image-rendering:optimizeQuality; fill-rule:evenodd; clip-rule:evenodd" xmlns:xlink="http://www.w3.org/1999/xlink">
<g><path style="opacity:1" fill="#f7f8f4" d="M -0.5,-0.5 C 340.833,-0.5 682.167,-0.5 1023.5,-0.5C 1023.5,340.833 1023.5,682.167 1023.5,1023.5C 682.167,1023.5 340.833,1023.5 -0.5,1023.5C -0.5,682.167 -0.5,340.833 -0.5,-0.5 Z"/></g>
<g><path style="opacity:1" fill="#828387" d="M 516.5,165.5 C 513.5,165.5 510.5,165.5 507.5,165.5C 507.5,168.167 507.5,170.833 507.5,173.5C 510.5,173.5 513.5,173.5 516.5,173.5C 513.375,174.479 510.042,174.813 506.5,174.5C 506.5,171.167 506.5,167.833 506.5,164.5C 510.042,164.187 513.375,164.521 516.5,165.5 Z"/></g>
<g><path style="opacity:1" fill="#2f303a" d="M 516.5,165.5 C 516.5,168.167 516.5,170.833 516.5,173.5C 513.5,173.5 510.5,173.5 507.5,173.5C 507.5,170.833 507.5,168.167 507.5,165.5C 510.5,165.5 513.5,165.5 516.5,165.5 Z"/></g>
<g><path style="opacity:1" fill="#2d2c3a" d="M 507.5,191.5 C 510.5,191.5 513.5,191.5 516.5,191.5C 516.5,197.167 516.5,202.833 516.5,208.5C 513.5,208.5 510.5,208.5 507.5,208.5C 507.5,202.833 507.5,197.167 507.5,191.5 Z"/></g>
<g><path style="opacity:1" fill="#343540" d="M 553.5,201.5 C 554.494,210.652 554.827,219.985 554.5,229.5C 551.5,229.5 548.5,229.5 545.5,229.5C 545.5,220.167 545.5,210.833 545.5,201.5C 548.167,201.5 550.833,201.5 553.5,201.5 Z"/></g>
<g><path style="opacity:1" fill="#757679" d="M 553.5,201.5 C 550.833,201.5 548.167,201.5 545.5,201.5C 545.5,210.833 545.5,220.167 545.5,229.5C 544.506,220.014 544.173,210.348 544.5,200.5C 547.713,200.19 550.713,200.523 553.5,201.5 Z"/></g>
<g><path style="opacity:1" fill="#fdfdfd" d="M 516.5,224.5 C 517.283,226.343 517.95,228.343 518.5,230.5C 517.54,236.773 517.207,243.107 517.5,249.5C 523.842,249.334 530.175,249.5 536.5,250C 538.592,251.113 540.925,251.279 543.5,250.5C 543.205,248.265 543.539,246.265 544.5,244.5C 544.168,276.004 544.502,307.338 545.5,338.5C 548.5,338.5 551.5,338.5 554.5,338.5C 554.5,308.167 554.5,277.833 554.5,247.5C 555.283,249.343 555.95,251.343 556.5,253.5C 613.172,266.917 662.005,294.251 703,335.5C 705.965,340.281 709.298,344.948 713,349.5C 713.308,348.692 713.808,348.025 714.5,347.5C 715.834,351.344 718.168,354.511 721.5,357C 720.391,358.813 721.058,359.646 723.5,359.5C 724.489,364.667 726.989,369 731,372.5C 739.456,387.747 747.123,403.413 754,419.5C 758.141,432.4 761.807,445.4 765,458.5C 766.877,466.019 767.711,473.685 767.5,481.5C 771.048,482.13 774.381,483.13 777.5,484.5C 744.5,484.5 711.5,484.5 678.5,484.5C 678.187,488.042 678.521,491.375 679.5,494.5C 716.664,495.333 753.998,495.833 791.5,496C 789.114,496.284 788.448,497.284 789.5,499C 786.798,499.607 784.132,499.44 781.5,498.5C 778.135,499.004 774.802,499.671 771.5,500.5C 770.523,504.589 770.19,508.922 770.5,513.5C 770.608,514.442 770.941,515.275 771.5,516C 779.833,516.333 788.167,516.667 796.5,517C 732.999,517.167 669.665,517.667 606.5,518.5C 606.5,521.833 606.5,525.167 606.5,528.5C 680.167,528.5 753.833,528.5 827.5,528.5C 827.611,529.117 827.944,529.617 828.5,530C 819.825,530.367 811.158,530.867 802.5,531.5C 791.845,530.488 781.179,530.321 770.5,531C 768.468,539.353 767.634,547.853 768,556.5C 769.126,557.944 770.626,558.61 772.5,558.5C 774.822,558.085 777.155,557.751 779.5,557.5C 796.325,558.109 812.991,558.776 829.5,559.5C 743.5,559.5 657.5,559.5 571.5,559.5C 571.187,563.042 571.521,566.375 572.5,569.5C 684.999,570.333 797.666,570.833 910.5,571C 884.108,571.425 857.775,571.925 831.5,572.5C 831.5,573.5 831.5,574.5 831.5,575.5C 826.634,574.408 821.8,573.074 817,571.5C 812.592,573.914 808.092,574.08 803.5,572C 789.504,571.5 775.504,571.333 761.5,571.5C 761.824,575.555 761.491,579.555 760.5,583.5C 759.692,583.808 759.025,584.308 758.5,585C 761.5,585.333 764.5,585.667 767.5,586C 767.5,587.333 767.5,588.667 767.5,590C 772.833,590.667 778.167,590.667 783.5,590C 786.167,586.667 788.833,586.667 791.5,590C 801.342,590.17 811.009,590.67 820.5,591.5C 735.332,591.167 650.332,591.501 565.5,592.5C 564.521,595.625 564.187,598.958 564.5,602.5C 649.5,602.5 734.5,602.5 819.5,602.5C 807.551,603.22 794.884,603.886 781.5,604.5C 778.885,603.731 776.219,603.397 773.5,603.5C 772.833,608.833 772.167,608.833 771.5,603.5C 764.14,603.558 756.806,604.058 749.5,605C 750.308,605.308 750.975,605.808 751.5,606.5C 750.372,607.262 749.205,607.929 748,608.5C 745.111,616.347 741.944,624.013 738.5,631.5C 750.012,631.172 761.346,631.505 772.5,632.5C 752.833,632.5 733.167,632.5 713.5,632.5C 713.187,636.042 713.521,639.375 714.5,642.5C 734.167,642.5 753.833,642.5 773.5,642.5C 773.5,639.5 773.5,636.5 773.5,633.5C 773.5,633.167 773.5,632.833 773.5,632.5C 773.435,632.062 773.601,631.728 774,631.5C 776.109,635.781 775.942,639.948 773.5,644C 757.833,644.333 742.167,644.667 726.5,645C 719.819,655.525 712.152,665.358 703.5,674.5C 702.359,675.425 702.359,676.259 703.5,677C 696.814,681.335 690.814,687.001 685.5,694C 678.948,697.215 673.615,701.882 669.5,708C 667.5,709.333 665.5,710.667 663.5,712C 724.74,712.484 785.74,712.317 846.5,711.5C 849.592,711.507 852.592,712.007 855.5,713C 760.834,713.5 666.167,713.667 571.5,713.5C 569.05,706.219 564.05,701.386 556.5,699C 550.894,686.409 541.227,681.075 527.5,683C 523.789,684.227 520.455,686.06 517.5,688.5C 516.502,653.337 516.168,618.004 516.5,582.5C 513.375,581.521 510.042,581.187 506.5,581.5C 506.829,594.011 506.495,606.345 505.5,618.5C 501.113,607.765 494.28,598.765 485,591.5C 484.333,590.5 484.333,589.5 485,588.5C 489.41,586.998 493.91,585.498 498.5,584C 502.167,580.333 505.833,576.667 509.5,573C 513.167,572.667 516.833,572.333 520.5,572C 540.365,551.803 559.865,531.303 579,510.5C 586.612,500.482 587.946,489.815 583,478.5C 577.833,472 572.667,465.5 567.5,459C 566.5,458.333 565.5,458.333 564.5,459C 562.983,460.685 561.316,462.185 559.5,463.5C 565.192,470.692 570.692,478.025 576,485.5C 577.038,490.476 576.372,495.142 574,499.5C 573.769,495.416 573.102,491.416 572,487.5C 567.911,481.407 563.078,475.907 557.5,471C 554.37,468.102 550.703,466.268 546.5,465.5C 543.37,465.648 540.87,466.982 539,469.5C 537.692,467.359 536.192,465.359 534.5,463.5C 536.234,460.8 538.568,458.8 541.5,457.5C 540.289,455.578 538.956,453.745 537.5,452C 528.026,454.807 527.36,453.473 535.5,448C 532.309,444.147 529.143,440.313 526,436.5C 516.185,443.077 506.185,449.41 496,455.5C 504.749,436.669 514.082,418.002 524,399.5C 525.356,398.62 526.856,398.286 528.5,398.5C 524.034,408.103 519.534,417.77 515,427.5C 514.333,428.5 514.333,429.5 515,430.5C 518.667,427.5 522.333,424.5 526,421.5C 530.293,414.415 534.46,407.249 538.5,400C 540.833,399.833 543.167,399.667 545.5,399.5C 554.463,401.125 563.463,402.459 572.5,403.5C 576.22,442.052 596.887,465.886 634.5,475C 677.829,477.774 705.996,458.607 719,417.5C 724.517,373.694 706.35,344.86 664.5,331C 630.469,324.615 603.636,335.449 584,363.5C 578.999,370.345 576.165,378.012 575.5,386.5C 583.544,387.172 591.544,388.172 599.5,389.5C 602.711,376.104 610.377,365.937 622.5,359C 647.298,348.026 668.798,352.526 687,372.5C 699.496,392.108 699.496,411.774 687,431.5C 671.853,448.992 653.019,454.826 630.5,449C 613.174,442.179 602.507,429.679 598.5,411.5C 598.5,410.167 598.5,408.833 598.5,407.5C 600.5,407.5 602.5,407.5 604.5,407.5C 604.833,407.5 605.167,407.5 605.5,407.5C 607.458,421.9 614.791,432.734 627.5,440C 646.612,447.431 663.778,444.264 679,430.5C 690.771,414.816 692.438,398.149 684,380.5C 680.619,374.285 675.786,369.618 669.5,366.5C 645.684,354.411 625.851,359.077 610,380.5C 607.661,383.808 606.828,387.308 607.5,391C 609.134,391.494 610.801,391.66 612.5,391.5C 616.302,378.894 624.635,370.727 637.5,367C 649.207,364.094 659.873,366.26 669.5,373.5C 684.444,386.226 687.611,401.559 679,419.5C 673.478,428.345 665.644,434.179 655.5,437C 641.145,439.873 628.978,436.04 619,425.5C 615.388,420.611 612.555,415.277 610.5,409.5C 610.957,408.702 611.624,408.369 612.5,408.5C 614.604,408.201 616.604,408.534 618.5,409.5C 628.48,431.771 644.147,436.938 665.5,425C 677.691,413.211 679.524,400.044 671,385.5C 654.927,369.554 638.927,369.554 623,385.5C 621.589,387.65 620.755,389.984 620.5,392.5C 624.556,392.777 628.556,393.444 632.5,394.5C 634.898,393.611 636.898,392.111 638.5,390C 650.204,385.523 657.537,389.523 660.5,402C 658.746,413.552 652.079,418.219 640.5,416C 638.246,414.623 636.08,413.123 634,411.5C 633.312,410.668 633.479,410.002 634.5,409.5C 639.438,410.743 644.438,411.243 649.5,411C 657.393,405.247 657.393,399.581 649.5,394C 646.208,393.064 643.208,393.564 640.5,395.5C 641.243,396.182 641.909,396.849 642.5,397.5C 640.721,399.344 638.388,400.01 635.5,399.5C 586.483,393.748 537.483,387.748 488.5,381.5C 488.5,385.167 488.5,388.833 488.5,392.5C 489.5,392.5 490.5,392.5 491.5,392.5C 491.605,396.548 491.272,400.548 490.5,404.5C 493.833,404.5 497.167,404.5 500.5,404.5C 500.5,401.167 500.5,397.833 500.5,394.5C 505.852,394.946 511.185,395.613 516.5,396.5C 514.088,401.659 511.421,406.659 508.5,411.5C 483.229,411.285 464.063,421.951 451,443.5C 449.275,446.674 447.942,450.007 447,453.5C 446.667,467.167 446.333,480.833 446,494.5C 439.513,502.142 433.513,510.142 428,518.5C 426.829,519.893 425.329,520.727 423.5,521C 409.618,524.54 395.618,527.874 381.5,531C 368.302,551.366 355.302,571.866 342.5,592.5C 343.002,593.521 343.668,593.688 344.5,593C 359.431,584.619 374.264,576.119 389,567.5C 392.22,564.734 394.72,561.401 396.5,557.5C 398.045,556.548 399.712,556.215 401.5,556.5C 407.084,556.745 412.417,556.078 417.5,554.5C 435.195,552.08 452.862,549.413 470.5,546.5C 465.878,555.07 461.211,563.737 456.5,572.5C 431.394,568.28 409.061,574.113 389.5,590C 364.655,615.556 359.322,644.723 373.5,677.5C 373.649,678.552 373.483,679.552 373,680.5C 363.563,680.474 353.73,680.307 343.5,680C 340.911,678.803 338.244,677.803 335.5,677C 321.833,676.333 308.167,676.333 294.5,677C 292.565,678.895 290.898,678.562 289.5,676C 304.672,675.831 319.672,675.331 334.5,674.5C 337.833,674.5 341.167,674.5 344.5,674.5C 344.5,671.167 344.5,667.833 344.5,664.5C 334.167,664.5 323.833,664.5 313.5,664.5C 309.479,657.782 305.479,651.115 301.5,644.5C 287.829,644.667 274.163,644.5 260.5,644C 285.003,643.832 309.337,643.332 333.5,642.5C 333.5,639.5 333.5,636.5 333.5,633.5C 309.006,632.502 284.339,632.169 259.5,632.5C 264.68,631.002 270.013,630.669 275.5,631.5C 277.384,631.284 279.051,630.617 280.5,629.5C 284.442,630.6 288.442,630.767 292.5,630C 288.057,621.614 283.723,613.114 279.5,604.5C 254.507,603.667 229.507,603.167 204.5,603C 241.669,602.833 278.669,602.333 315.5,601.5C 315.5,598.5 315.5,595.5 315.5,592.5C 278.002,591.667 240.336,591.167 202.5,591C 226.167,590.667 249.833,590.333 273.5,590C 273.833,589.667 274.167,589.333 274.5,589C 273.572,588.612 272.905,587.945 272.5,587C 271.73,581.857 270.063,577.023 267.5,572.5C 226.335,571.833 185.335,571.167 144.5,570.5C 207.669,570.832 270.669,570.499 333.5,569.5C 333.5,566.5 333.5,563.5 333.5,560.5C 307.664,559.833 281.664,559.167 255.5,558.5C 258.447,557.679 261.447,557.179 264.5,557C 261.905,548.93 260.571,540.763 260.5,532.5C 259.624,531.749 258.624,531.249 257.5,531C 218.833,530.667 180.167,530.333 141.5,530C 211.668,529.833 281.668,529.333 351.5,528.5C 352.479,525.375 352.813,522.042 352.5,518.5C 320.167,518.5 287.833,518.5 255.5,518.5C 218.002,517.667 180.336,517.167 142.5,517C 158.032,516.811 173.532,516.311 189,515.5C 211.803,516.651 234.636,516.818 257.5,516C 257.043,515.586 256.709,515.086 256.5,514.5C 257.388,498.843 258.554,483.177 260,467.5C 264.592,447.826 269.925,428.493 276,409.5C 281.726,398.962 287.059,388.295 292,377.5C 306.492,356.383 322.992,336.883 341.5,319C 377.161,286.833 418.494,265.166 465.5,254C 466.691,253.302 467.691,252.469 468.5,251.5C 468.5,280.5 468.5,309.5 468.5,338.5C 471.833,338.5 475.167,338.5 478.5,338.5C 478.5,309.5 478.5,280.5 478.5,251.5C 487.258,250.603 495.925,249.936 504.5,249.5C 505.167,241.343 505.833,233.343 506.5,225.5C 506.168,269.003 506.501,312.337 507.5,355.5C 510.167,355.5 512.833,355.5 515.5,355.5C 516.499,312.003 516.832,268.337 516.5,224.5 Z"/></g>
<g><path style="opacity:1" fill="#838489" d="M 516.5,224.5 C 516.832,268.337 516.499,312.003 515.5,355.5C 515.5,312.167 515.5,268.833 515.5,225.5C 512.833,225.5 510.167,225.5 507.5,225.5C 507.5,268.833 507.5,312.167 507.5,355.5C 506.501,312.337 506.168,269.003 506.5,225.5C 509.625,224.521 512.958,224.187 516.5,224.5 Z"/></g>
<g><path style="opacity:1" fill="#2e2c3e" d="M 553.5,245.5 C 553.5,276.167 553.5,306.833 553.5,337.5C 550.833,337.5 548.167,337.5 545.5,337.5C 545.5,306.833 545.5,276.167 545.5,245.5C 548.167,245.5 550.833,245.5 553.5,245.5 Z"/></g>
<g><path style="opacity:1" fill="#30323f" d="M 515.5,355.5 C 512.833,355.5 510.167,355.5 507.5,355.5C 507.5,312.167 507.5,268.833 507.5,225.5C 510.167,225.5 512.833,225.5 515.5,225.5C 515.5,268.833 515.5,312.167 515.5,355.5 Z"/></g>
<g><path style="opacity:1" fill="#707179" d="M 474.5,251.5 C 475.833,250.167 477.167,250.167 478.5,251.5C 478.5,280.5 478.5,309.5 478.5,338.5C 475.167,338.5 471.833,338.5 468.5,338.5C 468.5,309.5 468.5,280.5 468.5,251.5C 468.833,251.5 469.167,251.5 469.5,251.5C 469.169,280.338 469.502,309.005 470.5,337.5C 472.5,337.5 474.5,337.5 476.5,337.5C 477.498,309.005 477.831,280.338 477.5,251.5C 476.5,251.5 475.5,251.5 474.5,251.5 Z"/></g>
<g><path style="opacity:1" fill="#272a35" d="M 469.5,251.5 C 471.167,251.5 472.833,251.5 474.5,251.5C 475.5,251.5 476.5,251.5 477.5,251.5C 477.831,280.338 477.498,309.005 476.5,337.5C 476.667,313.831 476.5,290.164 476,266.5C 475.333,267.167 474.667,267.833 474,268.5C 473.006,291.514 471.839,314.514 470.5,337.5C 469.502,309.005 469.169,280.338 469.5,251.5 Z"/></g>
<g><path style="opacity:1" fill="#94939d" d="M 544.5,244.5 C 548.042,244.187 551.375,244.521 554.5,245.5C 554.167,245.5 553.833,245.5 553.5,245.5C 550.833,245.5 548.167,245.5 545.5,245.5C 545.5,276.167 545.5,306.833 545.5,337.5C 545.5,337.833 545.5,338.167 545.5,338.5C 544.502,307.338 544.168,276.004 544.5,244.5 Z"/></g>
<g><path style="opacity:1" fill="#4b4a52" d="M 553.5,245.5 C 553.833,245.5 554.167,245.5 554.5,245.5C 554.5,246.167 554.5,246.833 554.5,247.5C 554.5,277.833 554.5,308.167 554.5,338.5C 551.5,338.5 548.5,338.5 545.5,338.5C 545.5,338.167 545.5,337.833 545.5,337.5C 548.167,337.5 550.833,337.5 553.5,337.5C 553.5,306.833 553.5,276.167 553.5,245.5 Z"/></g>
<g><path style="opacity:1" fill="#303141" d="M 476.5,337.5 C 474.5,337.5 472.5,337.5 470.5,337.5C 471.839,314.514 473.006,291.514 474,268.5C 474.667,267.833 475.333,267.167 476,266.5C 476.5,290.164 476.667,313.831 476.5,337.5 Z"/></g>
<g><path style="opacity:1" fill="#30313f" d="M 533.5,365.5 C 534.209,366.404 535.209,366.737 536.5,366.5C 536.5,369.5 536.5,372.5 536.5,375.5C 536.5,377.5 536.5,379.5 536.5,381.5C 522.456,380.208 508.456,378.541 494.5,376.5C 494.5,371.167 494.5,365.833 494.5,360.5C 507.489,362.249 520.489,363.915 533.5,365.5 Z"/></g>
<g><path style="opacity:1" fill="#6d6d74" d="M 533.5,365.5 C 534.833,365.5 536.167,365.5 537.5,365.5C 537.813,369.042 537.479,372.375 536.5,375.5C 536.5,372.5 536.5,369.5 536.5,366.5C 535.209,366.737 534.209,366.404 533.5,365.5 Z"/></g>
<g><path style="opacity:1" fill="#2f303a" d="M 459.5,387.5 C 458.081,386.549 456.415,386.216 454.5,386.5C 454.5,383.5 454.5,380.5 454.5,377.5C 459.5,377.5 464.5,377.5 469.5,377.5C 469.5,373.833 469.5,370.167 469.5,366.5C 472.119,366.232 474.619,366.565 477,367.5C 477.333,371.5 477.667,375.5 478,379.5C 479.897,377.984 482.064,377.317 484.5,377.5C 484.826,381.884 484.492,386.217 483.5,390.5C 480.916,389.607 478.249,389.274 475.5,389.5C 475.5,393.167 475.5,396.833 475.5,400.5C 472.881,400.768 470.381,400.435 468,399.5C 467.501,395.848 467.335,392.182 467.5,388.5C 464.615,388.806 461.948,388.473 459.5,387.5 Z"/></g>
<g><path style="opacity:1" fill="#67676b" d="M 454.5,377.5 C 454.5,380.5 454.5,383.5 454.5,386.5C 456.415,386.216 458.081,386.549 459.5,387.5C 457.5,387.5 455.5,387.5 453.5,387.5C 453.187,383.958 453.521,380.625 454.5,377.5 Z"/></g>
<g><path style="opacity:1" fill="#646569" d="M 240.5,454.5 C 237.833,454.5 235.167,454.5 232.5,454.5C 232.5,457.5 232.5,460.5 232.5,463.5C 231.521,460.375 231.187,457.042 231.5,453.5C 234.713,453.19 237.713,453.523 240.5,454.5 Z"/></g>
<g><path style="opacity:1" fill="#272731" d="M 240.5,454.5 C 240.5,457.5 240.5,460.5 240.5,463.5C 237.833,463.5 235.167,463.5 232.5,463.5C 232.5,460.5 232.5,457.5 232.5,454.5C 235.167,454.5 237.833,454.5 240.5,454.5 Z"/></g>
<g><path style="opacity:1" fill="#565761" d="M 278.5,485.5 C 311.996,484.502 345.663,484.168 379.5,484.5C 379.813,488.042 379.479,491.375 378.5,494.5C 378.5,491.5 378.5,488.5 378.5,485.5C 345.167,485.5 311.833,485.5 278.5,485.5 Z"/></g>
<g><path style="opacity:1" fill="#2e303b" d="M 278.5,485.5 C 311.833,485.5 345.167,485.5 378.5,485.5C 378.5,488.5 378.5,491.5 378.5,494.5C 345.167,494.5 311.833,494.5 278.5,494.5C 278.5,491.5 278.5,488.5 278.5,485.5 Z"/></g>
<g><path style="opacity:1" fill="#30323c" d="M 777.5,484.5 C 781.833,484.5 786.167,484.5 790.5,484.5C 790.5,487.833 790.5,491.167 790.5,494.5C 753.5,494.5 716.5,494.5 679.5,494.5C 678.521,491.375 678.187,488.042 678.5,484.5C 711.5,484.5 744.5,484.5 777.5,484.5 Z"/></g>
<g><path style="opacity:1" fill="#8a8a8c" d="M 229.5,494.5 C 229.5,491.5 229.5,488.5 229.5,485.5C 226.833,485.5 224.167,485.5 221.5,485.5C 221.5,488.5 221.5,491.5 221.5,494.5C 220.521,491.375 220.187,488.042 220.5,484.5C 223.833,484.5 227.167,484.5 230.5,484.5C 230.813,488.042 230.479,491.375 229.5,494.5 Z"/></g>
<g><path style="opacity:1" fill="#292730" d="M 229.5,494.5 C 226.833,494.5 224.167,494.5 221.5,494.5C 221.5,491.5 221.5,488.5 221.5,485.5C 224.167,485.5 226.833,485.5 229.5,485.5C 229.5,488.5 229.5,491.5 229.5,494.5 Z"/></g>
<g><path style="opacity:1" fill="#282635" d="M 113.5,518.5 C 116.5,518.5 119.5,518.5 122.5,518.5C 122.5,521.833 122.5,525.167 122.5,528.5C 119.5,528.5 116.5,528.5 113.5,528.5C 113.5,525.167 113.5,521.833 113.5,518.5 Z"/></g>
<g><path style="opacity:1" fill="#2d2d37" d="M 845.5,518.5 C 867.833,518.5 890.167,518.5 912.5,518.5C 912.5,521.833 912.5,525.167 912.5,528.5C 890.167,528.5 867.833,528.5 845.5,528.5C 845.5,525.167 845.5,521.833 845.5,518.5 Z"/></g>
<g><path style="opacity:1" fill="#4b4b55" d="M 142.5,518.5 C 142.5,521.5 142.5,524.5 142.5,527.5C 212.167,527.5 281.833,527.5 351.5,527.5C 351.806,524.615 351.473,521.948 350.5,519.5C 310.33,519.832 270.33,519.499 230.5,518.5C 238.833,518.5 247.167,518.5 255.5,518.5C 287.833,518.5 320.167,518.5 352.5,518.5C 352.813,522.042 352.479,525.375 351.5,528.5C 281.5,528.5 211.5,528.5 141.5,528.5C 141.187,524.958 141.521,521.625 142.5,518.5 Z"/></g>
<g><path style="opacity:1" fill="#1d1e2a" d="M 142.5,518.5 C 142.833,518.5 143.167,518.5 143.5,518.5C 143.5,521.167 143.5,523.833 143.5,526.5C 212.5,526.5 281.5,526.5 350.5,526.5C 350.5,524.167 350.5,521.833 350.5,519.5C 351.473,521.948 351.806,524.615 351.5,527.5C 281.833,527.5 212.167,527.5 142.5,527.5C 142.5,524.5 142.5,521.5 142.5,518.5 Z"/></g>
<g><path style="opacity:1" fill="#2b2d3a" d="M 143.5,518.5 C 172.5,518.5 201.5,518.5 230.5,518.5C 270.33,519.499 310.33,519.832 350.5,519.5C 350.5,521.833 350.5,524.167 350.5,526.5C 281.5,526.5 212.5,526.5 143.5,526.5C 143.5,523.833 143.5,521.167 143.5,518.5 Z"/></g>
<g><path style="opacity:1" fill="#484951" d="M 606.5,518.5 C 650.833,518.5 695.167,518.5 739.5,518.5C 695.67,519.499 651.67,519.832 607.5,519.5C 607.5,522.167 607.5,524.833 607.5,527.5C 680.833,527.5 754.167,527.5 827.5,527.5C 827.5,524.5 827.5,521.5 827.5,518.5C 828.833,521.833 828.833,525.167 827.5,528.5C 753.833,528.5 680.167,528.5 606.5,528.5C 606.5,525.167 606.5,521.833 606.5,518.5 Z"/></g>
<g><path style="opacity:1" fill="#2a2b36" d="M 739.5,518.5 C 768.833,518.5 798.167,518.5 827.5,518.5C 827.5,521.5 827.5,524.5 827.5,527.5C 754.167,527.5 680.833,527.5 607.5,527.5C 607.5,524.833 607.5,522.167 607.5,519.5C 651.67,519.832 695.67,519.499 739.5,518.5 Z"/></g>
<g><path style="opacity:1" fill="#77797d" d="M 829.5,559.5 C 857.338,559.169 885.005,559.502 912.5,560.5C 851.833,560.5 791.167,560.5 730.5,560.5C 677.833,560.5 625.167,560.5 572.5,560.5C 572.5,563.5 572.5,566.5 572.5,569.5C 571.521,566.375 571.187,563.042 571.5,559.5C 657.5,559.5 743.5,559.5 829.5,559.5 Z"/></g>
<g><path style="opacity:1" fill="#2e2e3b" d="M 157.5,560.5 C 216.167,560.5 274.833,560.5 333.5,560.5C 333.5,563.5 333.5,566.5 333.5,569.5C 278.167,569.5 222.833,569.5 167.5,569.5C 214.998,568.667 262.665,568.167 310.5,568C 283.833,567.667 257.167,567.333 230.5,567C 235.5,566.667 240.5,566.333 245.5,566C 224.272,565.92 203.106,564.753 182,562.5C 178.975,562.63 175.975,562.963 173,563.5C 167.861,562.037 162.694,561.037 157.5,560.5 Z"/></g>
<g><path style="opacity:1" fill="#33343d" d="M 730.5,560.5 C 725.76,562.088 720.76,563.088 715.5,563.5C 712.536,562.528 709.536,562.362 706.5,563C 708.167,563.333 709.833,563.667 711.5,564C 710.167,564.167 708.833,564.333 707.5,564.5C 704.211,563.618 700.877,562.952 697.5,562.5C 683.493,563.381 669.493,563.881 655.5,564C 657.5,563.667 659.5,563.333 661.5,563C 658.333,562.833 655.167,562.667 652,562.5C 647.507,563.276 642.674,563.943 637.5,564.5C 634.167,564.333 630.833,564.167 627.5,564C 629.167,563.667 630.833,563.333 632.5,563C 613.473,562.588 594.473,562.254 575.5,562C 582.134,562.823 582.134,563.323 575.5,563.5C 575.5,564.833 575.5,566.167 575.5,567.5C 614.317,568.137 652.984,568.803 691.5,569.5C 651.833,569.5 612.167,569.5 572.5,569.5C 572.5,566.5 572.5,563.5 572.5,560.5C 625.167,560.5 677.833,560.5 730.5,560.5 Z"/></g>
<g><path style="opacity:1" fill="#2e2e3b" d="M 730.5,560.5 C 791.167,560.5 851.833,560.5 912.5,560.5C 912.5,563.5 912.5,566.5 912.5,569.5C 871.5,569.5 830.5,569.5 789.5,569.5C 829.663,568.501 869.997,568.168 910.5,568.5C 910.5,566.167 910.5,563.833 910.5,561.5C 865.499,561.333 820.499,561.5 775.5,562C 773.5,562.667 771.5,563.333 769.5,564C 770.167,564.333 770.833,564.667 771.5,565C 770.062,565.219 768.729,565.719 767.5,566.5C 772.866,567.936 778.2,568.936 783.5,569.5C 752.833,569.5 722.167,569.5 691.5,569.5C 652.984,568.803 614.317,568.137 575.5,567.5C 575.5,566.167 575.5,564.833 575.5,563.5C 582.134,563.323 582.134,562.823 575.5,562C 594.473,562.254 613.473,562.588 632.5,563C 630.833,563.333 629.167,563.667 627.5,564C 630.833,564.167 634.167,564.333 637.5,564.5C 642.674,563.943 647.507,563.276 652,562.5C 655.167,562.667 658.333,562.833 661.5,563C 659.5,563.333 657.5,563.667 655.5,564C 669.493,563.881 683.493,563.381 697.5,562.5C 700.877,562.952 704.211,563.618 707.5,564.5C 708.833,564.333 710.167,564.167 711.5,564C 709.833,563.667 708.167,563.333 706.5,563C 709.536,562.362 712.536,562.528 715.5,563.5C 720.76,563.088 725.76,562.088 730.5,560.5 Z"/></g>
<g><path style="opacity:1" fill="#2e2e41" d="M 789.5,569.5 C 787.5,569.5 785.5,569.5 783.5,569.5C 778.2,568.936 772.866,567.936 767.5,566.5C 768.729,565.719 770.062,565.219 771.5,565C 770.833,564.667 770.167,564.333 769.5,564C 771.5,563.333 773.5,562.667 775.5,562C 820.499,561.5 865.499,561.333 910.5,561.5C 910.5,563.833 910.5,566.167 910.5,568.5C 869.997,568.168 829.663,568.501 789.5,569.5 Z"/></g>
<g><path style="opacity:1" fill="#2b2b37" d="M 113.5,560.5 C 116.833,560.5 120.167,560.5 123.5,560.5C 123.81,563.713 123.477,566.713 122.5,569.5C 119.5,569.5 116.5,569.5 113.5,569.5C 113.5,566.5 113.5,563.5 113.5,560.5 Z"/></g>
<g><path style="opacity:1" fill="#292838" d="M 142.5,560.5 C 147.5,560.5 152.5,560.5 157.5,560.5C 162.694,561.037 167.861,562.037 173,563.5C 175.975,562.963 178.975,562.63 182,562.5C 203.106,564.753 224.272,565.92 245.5,566C 240.5,566.333 235.5,566.667 230.5,567C 257.167,567.333 283.833,567.667 310.5,568C 262.665,568.167 214.998,568.667 167.5,569.5C 159.167,569.5 150.833,569.5 142.5,569.5C 142.5,566.5 142.5,563.5 142.5,560.5 Z"/></g>
<g><path style="opacity:1" fill="#939397" d="M 113.5,560.5 C 113.5,563.5 113.5,566.5 113.5,569.5C 116.5,569.5 119.5,569.5 122.5,569.5C 119.375,570.479 116.042,570.813 112.5,570.5C 112.187,566.958 112.521,563.625 113.5,560.5 Z"/></g>
<g><path style="opacity:1" fill="#c8c9cc" d="M 142.5,560.5 C 142.5,563.5 142.5,566.5 142.5,569.5C 150.833,569.5 159.167,569.5 167.5,569.5C 222.833,569.5 278.167,569.5 333.5,569.5C 270.669,570.499 207.669,570.832 144.5,570.5C 143.5,570.5 142.5,570.5 141.5,570.5C 141.187,566.958 141.521,563.625 142.5,560.5 Z"/></g>
<g><path style="opacity:1" fill="#2e2f3a" d="M 505.5,618.5 C 505.56,619.043 505.893,619.376 506.5,619.5C 507.499,607.185 507.832,594.851 507.5,582.5C 510.167,582.5 512.833,582.5 515.5,582.5C 515.167,618.173 515.5,653.84 516.5,689.5C 517.107,689.376 517.44,689.043 517.5,688.5C 520.455,686.06 523.789,684.227 527.5,683C 541.227,681.075 550.894,686.409 556.5,699C 564.05,701.386 569.05,706.219 571.5,713.5C 665.999,714.499 760.665,714.833 855.5,714.5C 855.5,717.5 855.5,720.5 855.5,723.5C 754.833,723.5 654.167,723.5 553.5,723.5C 553.5,749.5 553.5,775.5 553.5,801.5C 550.833,801.5 548.167,801.5 545.5,801.5C 545.831,775.661 545.498,749.995 544.5,724.5C 535.014,723.506 525.348,723.173 515.5,723.5C 515.5,760.167 515.5,796.833 515.5,833.5C 514.667,797.669 514.167,761.669 514,725.5C 513.333,724.833 512.667,724.167 512,723.5C 511.417,725.002 510.584,726.335 509.5,727.5C 508.514,763.103 508.181,798.436 508.5,833.5C 507.833,797.002 507.167,760.669 506.5,724.5C 497.167,724.5 487.833,724.5 478.5,724.5C 478.167,724.5 477.833,724.5 477.5,724.5C 476.583,724.494 476.083,725.494 476,727.5C 475.115,720.922 473.948,720.922 472.5,727.5C 471.833,736.991 471.167,746.325 470.5,755.5C 470.81,752.287 470.477,749.287 469.5,746.5C 469.825,738.981 469.492,731.648 468.5,724.5C 468.5,724.167 468.5,723.833 468.5,723.5C 383.335,722.501 298.002,722.167 212.5,722.5C 212.279,719.721 212.612,717.054 213.5,714.5C 235.007,714.831 256.34,714.497 277.5,713.5C 281.066,700.963 289.232,696.297 302,699.5C 304.747,694.92 308.581,691.586 313.5,689.5C 316.807,688.949 320.14,688.616 323.5,688.5C 326.673,689.17 329.673,690.336 332.5,692C 335.375,695.044 338.375,697.877 341.5,700.5C 352.12,694.927 360.787,697.093 367.5,707C 372.059,706.408 375.059,708.241 376.5,712.5C 387.819,713.666 399.152,713.832 410.5,713C 394.035,705.366 381.702,693.533 373.5,677.5C 359.322,644.723 364.655,615.556 389.5,590C 409.061,574.113 431.394,568.28 456.5,572.5C 461.211,563.737 465.878,555.07 470.5,546.5C 452.862,549.413 435.195,552.08 417.5,554.5C 411.949,554.527 406.616,555.194 401.5,556.5C 399.712,556.215 398.045,556.548 396.5,557.5C 394.72,561.401 392.22,564.734 389,567.5C 374.264,576.119 359.431,584.619 344.5,593C 343.668,593.688 343.002,593.521 342.5,592.5C 355.302,571.866 368.302,551.366 381.5,531C 395.618,527.874 409.618,524.54 423.5,521C 425.329,520.727 426.829,519.893 428,518.5C 433.513,510.142 439.513,502.142 446,494.5C 446.333,480.833 446.667,467.167 447,453.5C 447.942,450.007 449.275,446.674 451,443.5C 464.063,421.951 483.229,411.285 508.5,411.5C 511.421,406.659 514.088,401.659 516.5,396.5C 511.185,395.613 505.852,394.946 500.5,394.5C 500.5,397.833 500.5,401.167 500.5,404.5C 497.167,404.5 493.833,404.5 490.5,404.5C 491.272,400.548 491.605,396.548 491.5,392.5C 490.5,392.5 489.5,392.5 488.5,392.5C 488.5,388.833 488.5,385.167 488.5,381.5C 537.483,387.748 586.483,393.748 635.5,399.5C 638.287,400.477 641.287,400.81 644.5,400.5C 644.5,401.833 644.5,403.167 644.5,404.5C 648.252,404.499 649.252,402.833 647.5,399.5C 645.805,398.826 644.138,398.159 642.5,397.5C 641.909,396.849 641.243,396.182 640.5,395.5C 643.208,393.564 646.208,393.064 649.5,394C 657.393,399.581 657.393,405.247 649.5,411C 644.438,411.243 639.438,410.743 634.5,409.5C 633.479,410.002 633.312,410.668 634,411.5C 636.08,413.123 638.246,414.623 640.5,416C 652.079,418.219 658.746,413.552 660.5,402C 657.537,389.523 650.204,385.523 638.5,390C 636.898,392.111 634.898,393.611 632.5,394.5C 628.556,393.444 624.556,392.777 620.5,392.5C 620.755,389.984 621.589,387.65 623,385.5C 638.927,369.554 654.927,369.554 671,385.5C 679.524,400.044 677.691,413.211 665.5,425C 644.147,436.938 628.48,431.771 618.5,409.5C 616.604,408.534 614.604,408.201 612.5,408.5C 610.393,407.532 608.059,407.198 605.5,407.5C 605.167,407.5 604.833,407.5 604.5,407.5C 602.393,406.532 600.059,406.198 597.5,406.5C 597.216,408.415 597.549,410.081 598.5,411.5C 602.507,429.679 613.174,442.179 630.5,449C 653.019,454.826 671.853,448.992 687,431.5C 699.496,411.774 699.496,392.108 687,372.5C 668.798,352.526 647.298,348.026 622.5,359C 610.377,365.937 602.711,376.104 599.5,389.5C 591.544,388.172 583.544,387.172 575.5,386.5C 576.165,378.012 578.999,370.345 584,363.5C 603.636,335.449 630.469,324.615 664.5,331C 706.35,344.86 724.517,373.694 719,417.5C 705.996,458.607 677.829,477.774 634.5,475C 596.887,465.886 576.22,442.052 572.5,403.5C 563.463,402.459 554.463,401.125 545.5,399.5C 543.167,399.667 540.833,399.833 538.5,400C 534.46,407.249 530.293,414.415 526,421.5C 522.333,424.5 518.667,427.5 515,430.5C 514.333,429.5 514.333,428.5 515,427.5C 519.534,417.77 524.034,408.103 528.5,398.5C 526.856,398.286 525.356,398.62 524,399.5C 514.082,418.002 504.749,436.669 496,455.5C 506.185,449.41 516.185,443.077 526,436.5C 529.143,440.313 532.309,444.147 535.5,448C 527.36,453.473 528.026,454.807 537.5,452C 538.956,453.745 540.289,455.578 541.5,457.5C 538.568,458.8 536.234,460.8 534.5,463.5C 536.192,465.359 537.692,467.359 539,469.5C 540.87,466.982 543.37,465.648 546.5,465.5C 550.703,466.268 554.37,468.102 557.5,471C 563.078,475.907 567.911,481.407 572,487.5C 573.102,491.416 573.769,495.416 574,499.5C 576.372,495.142 577.038,490.476 576,485.5C 570.692,478.025 565.192,470.692 559.5,463.5C 561.316,462.185 562.983,460.685 564.5,459C 565.5,458.333 566.5,458.333 567.5,459C 572.667,465.5 577.833,472 583,478.5C 587.946,489.815 586.612,500.482 579,510.5C 559.865,531.303 540.365,551.803 520.5,572C 516.833,572.333 513.167,572.667 509.5,573C 505.833,576.667 502.167,580.333 498.5,584C 493.91,585.498 489.41,586.998 485,588.5C 484.333,589.5 484.333,590.5 485,591.5C 494.28,598.765 501.113,607.765 505.5,618.5 Z"/></g>
<g><path style="opacity:1" fill="#f5f5f7" d="M 486.5,567.5 C 485.314,563.612 482.814,562.612 479,564.5C 466.142,587.548 453.809,610.882 442,634.5C 440.941,636.659 439.441,638.326 437.5,639.5C 435.72,640.99 435.054,642.99 435.5,645.5C 434.5,645.5 433.5,645.5 432.5,645.5C 434.596,652.9 438.929,654.4 445.5,650C 446.066,649.005 446.733,648.172 447.5,647.5C 448.598,648.601 448.765,649.934 448,651.5C 442.723,658.601 436.723,659.268 430,653.5C 427.186,648.994 426.853,644.327 429,639.5C 437.188,627.794 444.355,615.461 450.5,602.5C 458.427,586.975 466.594,571.642 475,556.5C 480.104,557.966 484.604,560.3 488.5,563.5C 488.332,565.171 487.665,566.504 486.5,567.5 Z"/></g>
<g><path style="opacity:1" fill="#c1c1c8" d="M 417.5,554.5 C 412.417,556.078 407.084,556.745 401.5,556.5C 406.616,555.194 411.949,554.527 417.5,554.5 Z"/></g>
<g><path style="opacity:1" fill="#edeef0" d="M 482.5,543.5 C 488.949,547.563 495.615,551.396 502.5,555C 509.357,555.787 516.024,554.954 522.5,552.5C 523.5,552.833 524.5,553.167 525.5,553.5C 523.397,557.106 520.731,560.273 517.5,563C 513.049,563.13 508.716,563.796 504.5,565C 500.326,568.008 496.659,571.508 493.5,575.5C 493.167,575.167 492.833,574.833 492.5,574.5C 495.167,569.5 497.833,564.5 500.5,559.5C 493.965,555.15 486.965,551.65 479.5,549C 479.167,548.667 478.833,548.333 478.5,548C 480.041,546.629 481.375,545.129 482.5,543.5 Z"/></g>
<g><path style="opacity:1" fill="#eff1f2" d="M 463.5,496.5 C 464.75,496.577 465.583,497.244 466,498.5C 469.236,511.852 472.402,525.185 475.5,538.5C 453.194,540.358 431.027,543.025 409,546.5C 408.835,544.322 409.668,542.489 411.5,541C 421.289,540.235 430.955,538.735 440.5,536.5C 448.222,523.132 455.889,509.799 463.5,496.5 Z"/></g>
<g><path style="opacity:1" fill="#31323e" d="M 461.5,512.5 C 465.571,518.711 467.904,525.711 468.5,533.5C 461.415,533.615 454.415,534.115 447.5,535C 452.052,527.388 456.719,519.888 461.5,512.5 Z"/></g>
<g><path style="opacity:1" fill="#f2f4f4" d="M 542.5,475.5 C 548.67,476.448 553.837,479.448 558,484.5C 559.667,486.833 561.333,489.167 563,491.5C 563.667,498.167 563.667,504.833 563,511.5C 559.233,516.023 555.233,520.357 551,524.5C 550.333,522.167 550.333,519.833 551,517.5C 560.983,507.706 560.816,498.206 550.5,489C 546.969,487.411 543.302,486.245 539.5,485.5C 542.143,482.734 543.143,479.401 542.5,475.5 Z"/></g>
<g><path style="opacity:1" fill="#f2f3f5" d="M 489.5,462.5 C 491.017,462.511 492.184,463.177 493,464.5C 494.626,466.917 496.126,469.417 497.5,472C 506.448,470.804 506.781,471.971 498.5,475.5C 499.362,478.885 501.028,481.885 503.5,484.5C 505.167,483.167 506.833,481.833 508.5,480.5C 511.334,484.849 514,489.349 516.5,494C 541.524,501.171 548.191,516.337 536.5,539.5C 528.108,541.645 526.942,539.978 533,534.5C 539.381,522.201 537.214,511.701 526.5,503C 515.822,497.222 506.322,498.722 498,507.5C 490.744,519.855 492.577,530.688 503.5,540C 506.438,542.257 509.771,543.424 513.5,543.5C 513.5,544.5 513.5,545.5 513.5,546.5C 496.998,545.497 488.331,536.664 487.5,520C 487.546,514.194 489.38,509.027 493,504.5C 495.566,501.934 498.066,499.434 500.5,497C 498.208,490.082 494.875,483.748 490.5,478C 489.551,477.383 488.718,477.549 488,478.5C 485.079,483.341 482.412,488.341 480,493.5C 479.333,495.167 479.333,496.833 480,498.5C 481.92,501.838 483.42,505.338 484.5,509C 482.515,513.624 481.349,518.457 481,523.5C 478.081,514.027 475.581,504.36 473.5,494.5C 479.291,484.048 484.624,473.381 489.5,462.5 Z"/></g>
<g><path style="opacity:1" fill="#3a3840" d="M 539.5,425.5 C 541.903,425.393 543.736,426.393 545,428.5C 550.618,436.453 556.618,444.12 563,451.5C 563.982,452.759 564.315,454.092 564,455.5C 561.876,456.622 560.043,458.122 558.5,460C 557.551,460.617 556.718,460.451 556,459.5C 548.884,449.382 541.384,439.549 533.5,430C 535.389,428.236 537.389,426.736 539.5,425.5 Z"/></g>
<g><path style="opacity:1" fill="#83848c" d="M 604.5,407.5 C 602.5,407.5 600.5,407.5 598.5,407.5C 598.5,408.833 598.5,410.167 598.5,411.5C 597.549,410.081 597.216,408.415 597.5,406.5C 600.059,406.198 602.393,406.532 604.5,407.5 Z"/></g>
<g><path style="opacity:1" fill="#cacbd0" d="M 642.5,397.5 C 644.138,398.159 645.805,398.826 647.5,399.5C 649.252,402.833 648.252,404.499 644.5,404.5C 644.5,403.167 644.5,401.833 644.5,400.5C 641.287,400.81 638.287,400.477 635.5,399.5C 638.388,400.01 640.721,399.344 642.5,397.5 Z"/></g>
<g><path style="opacity:1" fill="#848490" d="M 669.5,366.5 C 675.786,369.618 680.619,374.285 684,380.5C 692.438,398.149 690.771,414.816 679,430.5C 663.778,444.264 646.612,447.431 627.5,440C 614.791,432.734 607.458,421.9 605.5,407.5C 608.059,407.198 610.393,407.532 612.5,408.5C 611.624,408.369 610.957,408.702 610.5,409.5C 612.555,415.277 615.388,420.611 619,425.5C 628.978,436.04 641.145,439.873 655.5,437C 665.644,434.179 673.478,428.345 679,419.5C 687.611,401.559 684.444,386.226 669.5,373.5C 670.649,373.209 671.316,372.376 671.5,371C 670.926,369.393 670.26,367.893 669.5,366.5 Z"/></g>
<g><path style="opacity:1" fill="#7b7b8a" d="M 669.5,366.5 C 670.26,367.893 670.926,369.393 671.5,371C 671.316,372.376 670.649,373.209 669.5,373.5C 659.873,366.26 649.207,364.094 637.5,367C 624.635,370.727 616.302,378.894 612.5,391.5C 610.801,391.66 609.134,391.494 607.5,391C 606.828,387.308 607.661,383.808 610,380.5C 625.851,359.077 645.684,354.411 669.5,366.5 Z"/></g>
<g><path style="opacity:1" fill="#8a8990" d="M 565.5,592.5 C 650.332,591.501 735.332,591.167 820.5,591.5C 820.813,595.042 820.479,598.375 819.5,601.5C 819.5,599.167 819.5,596.833 819.5,594.5C 803.868,592.515 787.868,591.849 771.5,592.5C 702.833,592.5 634.167,592.5 565.5,592.5 Z"/></g>
<g><path style="opacity:1" fill="#2d2d3a" d="M 315.5,592.5 C 315.5,595.5 315.5,598.5 315.5,601.5C 277.833,601.5 240.167,601.5 202.5,601.5C 202.5,598.5 202.5,595.5 202.5,592.5C 240.167,592.5 277.833,592.5 315.5,592.5 Z"/></g>
<g><path style="opacity:1" fill="#2f2e3c" d="M 771.5,592.5 C 787.868,591.849 803.868,592.515 819.5,594.5C 818.539,596.265 818.205,598.265 818.5,600.5C 734.829,600.743 651.162,600.409 567.5,599.5C 567.325,596.671 568.658,595.004 571.5,594.5C 578.667,594.167 585.833,593.833 593,593.5C 637.061,593.479 681.061,593.813 725,594.5C 740.598,593.841 756.098,593.174 771.5,592.5 Z"/></g>
<g><path style="opacity:1" fill="#f5f6f7" d="M 444.5,596.5 C 443.242,598.687 442.242,601.02 441.5,603.5C 419.592,603.376 405.092,613.709 398,634.5C 395.21,658.088 404.71,674.588 426.5,684C 450.575,688.047 467.408,678.88 477,656.5C 481.013,642.906 478.513,630.906 469.5,620.5C 469.541,617.195 470.875,615.029 473.5,614C 486.578,629.484 489.078,646.65 481,665.5C 468.762,687.26 450.262,695.76 425.5,691C 397.115,679.4 386.282,658.566 393,628.5C 402.574,605.783 419.74,595.116 444.5,596.5 Z"/></g>
<g><path style="opacity:1" fill="#2a2934" d="M 565.5,592.5 C 634.167,592.5 702.833,592.5 771.5,592.5C 756.098,593.174 740.598,593.841 725,594.5C 681.061,593.813 637.061,593.479 593,593.5C 585.833,593.833 578.667,594.167 571.5,594.5C 568.658,595.004 567.325,596.671 567.5,599.5C 651.162,600.409 734.829,600.743 818.5,600.5C 818.205,598.265 818.539,596.265 819.5,594.5C 819.5,596.833 819.5,599.167 819.5,601.5C 734.833,601.5 650.167,601.5 565.5,601.5C 565.5,598.5 565.5,595.5 565.5,592.5 Z"/></g>
<g><path style="opacity:1" fill="#9c9ca2" d="M 565.5,592.5 C 565.5,595.5 565.5,598.5 565.5,601.5C 650.167,601.5 734.833,601.5 819.5,601.5C 819.5,601.833 819.5,602.167 819.5,602.5C 734.5,602.5 649.5,602.5 564.5,602.5C 564.187,598.958 564.521,595.625 565.5,592.5 Z"/></g>
<g><path style="opacity:1" fill="#9c9da3" d="M 516.5,582.5 C 516.167,582.5 515.833,582.5 515.5,582.5C 512.833,582.5 510.167,582.5 507.5,582.5C 507.832,594.851 507.499,607.185 506.5,619.5C 505.893,619.376 505.56,619.043 505.5,618.5C 506.495,606.345 506.829,594.011 506.5,581.5C 510.042,581.187 513.375,581.521 516.5,582.5 Z"/></g>
<g><path style="opacity:1" fill="#f5f6f8" d="M 437.5,610.5 C 435.719,613.223 434.052,616.057 432.5,619C 414.3,623.548 407.467,635.048 412,653.5C 422.072,673.079 436.572,677.246 455.5,666C 465.215,656.583 467.548,645.75 462.5,633.5C 463.011,630.978 464.011,628.645 465.5,626.5C 466.496,626.414 467.329,626.748 468,627.5C 475.408,643.126 473.242,657.293 461.5,670C 442.791,682.794 425.624,680.961 410,664.5C 397.886,641.774 403.053,624.274 425.5,612C 429.418,610.844 433.418,610.344 437.5,610.5 Z"/></g>
<g><path style="opacity:1" fill="#c4c7d2" d="M 486.5,567.5 C 474.065,592.712 460.898,617.378 447,641.5C 444.032,639.922 440.865,639.255 437.5,639.5C 439.441,638.326 440.941,636.659 442,634.5C 453.809,610.882 466.142,587.548 479,564.5C 482.814,562.612 485.314,563.612 486.5,567.5 Z"/></g>
<g><path style="opacity:1" fill="#96979b" d="M 259.5,632.5 C 284.339,632.169 309.006,632.502 333.5,633.5C 308.833,633.5 284.167,633.5 259.5,633.5C 259.5,636.5 259.5,639.5 259.5,642.5C 258.167,639.167 258.167,635.833 259.5,632.5 Z"/></g>
<g><path style="opacity:1" fill="#8c8c90" d="M 772.5,632.5 C 772.833,632.5 773.167,632.5 773.5,632.5C 773.5,632.833 773.5,633.167 773.5,633.5C 753.833,633.5 734.167,633.5 714.5,633.5C 714.5,636.5 714.5,639.5 714.5,642.5C 713.521,639.375 713.187,636.042 713.5,632.5C 733.167,632.5 752.833,632.5 772.5,632.5 Z"/></g>
<g><path style="opacity:1" fill="#7c7c80" d="M 218.5,642.5 C 218.5,639.5 218.5,636.5 218.5,633.5C 215.833,633.5 213.167,633.5 210.5,633.5C 210.5,636.5 210.5,639.5 210.5,642.5C 209.521,639.375 209.187,636.042 209.5,632.5C 212.833,632.5 216.167,632.5 219.5,632.5C 219.813,636.042 219.479,639.375 218.5,642.5 Z"/></g>
<g><path style="opacity:1" fill="#dadada" d="M 808.5,632.5 C 811.167,632.5 813.833,632.5 816.5,632.5C 818.167,639.5 815.5,642.167 808.5,640.5C 808.5,637.833 808.5,635.167 808.5,632.5 Z"/></g>
<g><path style="opacity:1" fill="#98989c" d="M 188.5,642.5 C 188.5,639.5 188.5,636.5 188.5,633.5C 185.5,633.5 182.5,633.5 179.5,633.5C 179.5,636.5 179.5,639.5 179.5,642.5C 178.521,639.375 178.187,636.042 178.5,632.5C 182.167,632.5 185.833,632.5 189.5,632.5C 189.813,636.042 189.479,639.375 188.5,642.5 Z"/></g>
<g><path style="opacity:1" fill="#2d2c37" d="M 188.5,642.5 C 185.5,642.5 182.5,642.5 179.5,642.5C 179.5,639.5 179.5,636.5 179.5,633.5C 182.5,633.5 185.5,633.5 188.5,633.5C 188.5,636.5 188.5,639.5 188.5,642.5 Z"/></g>
<g><path style="opacity:1" fill="#2b2b35" d="M 333.5,633.5 C 333.5,636.5 333.5,639.5 333.5,642.5C 308.833,642.5 284.167,642.5 259.5,642.5C 259.5,639.5 259.5,636.5 259.5,633.5C 284.167,633.5 308.833,633.5 333.5,633.5 Z"/></g>
<g><path style="opacity:1" fill="#303139" d="M 444.5,596.5 C 448.168,598.239 448.501,600.572 445.5,603.5C 445.833,603.833 446.167,604.167 446.5,604.5C 447.622,603.37 448.956,602.703 450.5,602.5C 444.355,615.461 437.188,627.794 429,639.5C 426.853,644.327 427.186,648.994 430,653.5C 436.723,659.268 442.723,658.601 448,651.5C 448.765,649.934 448.598,648.601 447.5,647.5C 449.945,645.188 452.945,643.854 456.5,643.5C 457.52,639.44 459.52,636.107 462.5,633.5C 467.548,645.75 465.215,656.583 455.5,666C 436.572,677.246 422.072,673.079 412,653.5C 407.467,635.048 414.3,623.548 432.5,619C 434.052,616.057 435.719,613.223 437.5,610.5C 439.261,607.93 440.594,605.597 441.5,603.5C 442.242,601.02 443.242,598.687 444.5,596.5 Z"/></g>
<g><path style="opacity:1" fill="#2b2a36" d="M 218.5,642.5 C 215.833,642.5 213.167,642.5 210.5,642.5C 210.5,639.5 210.5,636.5 210.5,633.5C 213.167,633.5 215.833,633.5 218.5,633.5C 218.5,636.5 218.5,639.5 218.5,642.5 Z"/></g>
<g><path style="opacity:1" fill="#2c2a39" d="M 773.5,633.5 C 773.5,636.5 773.5,639.5 773.5,642.5C 753.833,642.5 734.167,642.5 714.5,642.5C 714.5,639.5 714.5,636.5 714.5,633.5C 734.167,633.5 753.833,633.5 773.5,633.5 Z"/></g>
<g><path style="opacity:1" fill="#65646f" d="M 515.5,582.5 C 515.833,582.5 516.167,582.5 516.5,582.5C 516.168,618.004 516.502,653.337 517.5,688.5C 517.44,689.043 517.107,689.376 516.5,689.5C 515.5,653.84 515.167,618.173 515.5,582.5 Z"/></g>
<g><path style="opacity:1" fill="#80808d" d="M 441.5,603.5 C 440.594,605.597 439.261,607.93 437.5,610.5C 433.418,610.344 429.418,610.844 425.5,612C 403.053,624.274 397.886,641.774 410,664.5C 425.624,680.961 442.791,682.794 461.5,670C 473.242,657.293 475.408,643.126 468,627.5C 467.329,626.748 466.496,626.414 465.5,626.5C 467.316,624.882 468.649,622.882 469.5,620.5C 478.513,630.906 481.013,642.906 477,656.5C 467.408,678.88 450.575,688.047 426.5,684C 404.71,674.588 395.21,658.088 398,634.5C 405.092,613.709 419.592,603.376 441.5,603.5 Z"/></g>
<g><path style="opacity:1" fill="#2b2b38" d="M 289.5,665.5 C 304.5,665.5 319.5,665.5 334.5,665.5C 334.5,668.5 334.5,671.5 334.5,674.5C 319.5,674.5 304.5,674.5 289.5,674.5C 289.5,671.5 289.5,668.5 289.5,665.5 Z"/></g>
<g><path style="opacity:1" fill="#bebdc4" d="M 289.5,665.5 C 297.316,664.508 305.316,664.174 313.5,664.5C 323.833,664.5 334.167,664.5 344.5,664.5C 344.5,667.833 344.5,671.167 344.5,674.5C 341.167,674.5 337.833,674.5 334.5,674.5C 334.5,671.5 334.5,668.5 334.5,665.5C 319.5,665.5 304.5,665.5 289.5,665.5 Z"/></g>
<g><path style="opacity:1" fill="#737577" d="M 323.5,688.5 C 320.14,688.616 316.807,688.949 313.5,689.5C 316.708,687.469 320.041,687.135 323.5,688.5 Z"/></g>
<g><path style="opacity:1" fill="#ced1d9" d="M 523.5,696.5 C 527.967,696.647 532.633,696.814 537.5,697C 540.102,697.977 542.602,699.144 545,700.5C 545.399,700.272 545.565,699.938 545.5,699.5C 547.855,701.923 548.855,704.923 548.5,708.5C 551.518,708.335 554.518,708.502 557.5,709C 559.644,709.792 560.977,711.292 561.5,713.5C 528.662,713.832 495.996,713.498 463.5,712.5C 484.371,705.463 498.538,691.463 506,670.5C 506.5,681.495 506.667,692.495 506.5,703.5C 510.833,703.5 515.167,703.5 519.5,703.5C 519.555,700.386 520.888,698.052 523.5,696.5 Z"/></g>
<g><path style="opacity:1" fill="#f3f5f7" d="M 545.5,699.5 C 545.565,699.938 545.399,700.272 545,700.5C 542.602,699.144 540.102,697.977 537.5,697C 532.633,696.814 527.967,696.647 523.5,696.5C 529.351,691.784 535.685,691.284 542.5,695C 544.141,696.129 545.141,697.629 545.5,699.5 Z"/></g>
<g><path style="opacity:1" fill="#d9d8de" d="M 341.5,712.5 C 323.5,713.833 305.5,713.833 287.5,712.5C 288.848,709.492 291.182,708.159 294.5,708.5C 298.848,710.655 303.514,711.655 308.5,711.5C 308.487,703.679 312.321,699.012 320,697.5C 327.938,698.268 331.771,702.602 331.5,710.5C 334.518,710.335 337.518,710.502 340.5,711C 341.056,711.383 341.389,711.883 341.5,712.5 Z"/></g>
<g><path style="opacity:1" fill="#ebecf0" d="M 348.5,707.5 C 351.649,707.211 354.649,707.711 357.5,709C 358.38,710.356 358.714,711.856 358.5,713.5C 355.5,713.5 352.5,713.5 349.5,713.5C 349.167,711.5 348.833,709.5 348.5,707.5 Z"/></g>
<g><path style="opacity:1" fill="#67676f" d="M 287.5,712.5 C 305.5,713.833 323.5,713.833 341.5,712.5C 342.043,712.56 342.376,712.893 342.5,713.5C 323.833,714.833 305.167,714.833 286.5,713.5C 286.624,712.893 286.957,712.56 287.5,712.5 Z"/></g>
<g><path style="opacity:1" fill="#5e5f69" d="M 463.5,712.5 C 495.996,713.498 528.662,713.832 561.5,713.5C 528.664,714.83 495.664,714.83 462.5,713.5C 462.624,712.893 462.957,712.56 463.5,712.5 Z"/></g>
<g><path style="opacity:1" fill="#9b9ba1" d="M 875.5,714.5 C 887.655,713.505 899.989,713.171 912.5,713.5C 912.5,717.167 912.5,720.833 912.5,724.5C 899.989,724.829 887.655,724.495 875.5,723.5C 887.5,723.5 899.5,723.5 911.5,723.5C 911.5,720.5 911.5,717.5 911.5,714.5C 899.5,714.5 887.5,714.5 875.5,714.5 Z"/></g>
<g><path style="opacity:1" fill="#54535a" d="M 147.5,715.5 C 145.5,715.5 143.5,715.5 141.5,715.5C 141.5,718.167 141.5,720.833 141.5,723.5C 143.5,723.5 145.5,723.5 147.5,723.5C 145.393,724.468 143.059,724.802 140.5,724.5C 140.5,721.167 140.5,717.833 140.5,714.5C 143.059,714.198 145.393,714.532 147.5,715.5 Z"/></g>
<g><path style="opacity:1" fill="#292737" d="M 147.5,715.5 C 147.5,718.167 147.5,720.833 147.5,723.5C 145.5,723.5 143.5,723.5 141.5,723.5C 141.5,720.833 141.5,718.167 141.5,715.5C 143.5,715.5 145.5,715.5 147.5,715.5 Z"/></g>
<g><path style="opacity:1" fill="#636269" d="M 114.5,714.5 C 114.5,717.5 114.5,720.5 114.5,723.5C 116.5,723.5 118.5,723.5 120.5,723.5C 118.393,724.468 116.059,724.802 113.5,724.5C 113.187,720.958 113.521,717.625 114.5,714.5 Z"/></g>
<g><path style="opacity:1" fill="#333543" d="M 166.5,714.5 C 172.833,714.5 179.167,714.5 185.5,714.5C 185.5,717.833 185.5,721.167 185.5,724.5C 179.167,724.5 172.833,724.5 166.5,724.5C 166.5,721.167 166.5,717.833 166.5,714.5 Z"/></g>
<g><path style="opacity:1" fill="#393747" d="M 114.5,714.5 C 116.833,714.5 119.167,714.5 121.5,714.5C 121.81,717.713 121.477,720.713 120.5,723.5C 118.5,723.5 116.5,723.5 114.5,723.5C 114.5,720.5 114.5,717.5 114.5,714.5 Z"/></g>
<g><path style="opacity:1" fill="#2b2a38" d="M 875.5,714.5 C 887.5,714.5 899.5,714.5 911.5,714.5C 911.5,717.5 911.5,720.5 911.5,723.5C 899.5,723.5 887.5,723.5 875.5,723.5C 875.5,720.5 875.5,717.5 875.5,714.5 Z"/></g>
<g><path style="opacity:1" fill="#23232c" d="M 213.5,714.5 C 212.612,717.054 212.279,719.721 212.5,722.5C 298.002,722.167 383.335,722.501 468.5,723.5C 382.833,723.5 297.167,723.5 211.5,723.5C 210.945,719.988 211.612,716.988 213.5,714.5 Z"/></g>
<g><path style="opacity:1" fill="#7d7d84" d="M 277.5,713.5 C 256.34,714.497 235.007,714.831 213.5,714.5C 211.612,716.988 210.945,719.988 211.5,723.5C 297.167,723.5 382.833,723.5 468.5,723.5C 468.5,723.833 468.5,724.167 468.5,724.5C 382.5,724.5 296.5,724.5 210.5,724.5C 210.5,720.833 210.5,717.167 210.5,713.5C 232.833,713.5 255.167,713.5 277.5,713.5 Z"/></g>
<g><path style="opacity:1" fill="#a3a3ad" d="M 417.5,727.5 C 419.5,727.5 421.5,727.5 423.5,727.5C 423.5,729.5 423.5,731.5 423.5,733.5C 421.5,733.5 419.5,733.5 417.5,733.5C 417.5,731.5 417.5,729.5 417.5,727.5 Z"/></g>
<g><path style="opacity:1" fill="#b8b9bf" d="M 443.5,727.5 C 445.5,727.5 447.5,727.5 449.5,727.5C 449.5,729.5 449.5,731.5 449.5,733.5C 447.5,733.5 445.5,733.5 443.5,733.5C 443.5,731.5 443.5,729.5 443.5,727.5 Z"/></g>
<g><path style="opacity:1" fill="#bbbcc1" d="M 429.5,727.5 C 431.833,727.5 434.167,727.5 436.5,727.5C 436.5,729.833 436.5,732.167 436.5,734.5C 430.5,735.833 428.167,733.5 429.5,727.5 Z"/></g>
<g><path style="opacity:1" fill="#a8acb4" d="M 456.5,727.5 C 458.5,727.5 460.5,727.5 462.5,727.5C 462.5,729.5 462.5,731.5 462.5,733.5C 460.5,733.5 458.5,733.5 456.5,733.5C 456.5,731.5 456.5,729.5 456.5,727.5 Z"/></g>
<g><path style="opacity:1" fill="#73757b" d="M 468.5,724.5 C 469.492,731.648 469.825,738.981 469.5,746.5C 469.5,768.833 469.5,791.167 469.5,813.5C 472.167,813.5 474.833,813.5 477.5,813.5C 477.5,799.5 477.5,785.5 477.5,771.5C 477.5,755.833 477.5,740.167 477.5,724.5C 477.833,724.5 478.167,724.5 478.5,724.5C 478.5,754.5 478.5,784.5 478.5,814.5C 475.167,814.5 471.833,814.5 468.5,814.5C 468.5,784.5 468.5,754.5 468.5,724.5 Z"/></g>
<g><path style="opacity:1" fill="#57575e" d="M 855.5,723.5 C 755.335,724.499 655.001,724.833 554.5,724.5C 554.831,750.339 554.498,776.005 553.5,801.5C 553.5,775.5 553.5,749.5 553.5,723.5C 654.167,723.5 754.833,723.5 855.5,723.5 Z"/></g>
<g><path style="opacity:1" fill="#65656c" d="M 544.5,724.5 C 535.167,724.5 525.833,724.5 516.5,724.5C 516.832,761.337 516.498,798.004 515.5,834.5C 515.5,834.167 515.5,833.833 515.5,833.5C 515.5,796.833 515.5,760.167 515.5,723.5C 525.348,723.173 535.014,723.506 544.5,724.5 Z"/></g>
<g><path style="opacity:1" fill="#1b1e29" d="M 469.5,746.5 C 470.477,749.287 470.81,752.287 470.5,755.5C 470.5,774.5 470.5,793.5 470.5,812.5C 472.5,812.5 474.5,812.5 476.5,812.5C 476.171,798.656 476.504,784.99 477.5,771.5C 477.5,785.5 477.5,799.5 477.5,813.5C 474.833,813.5 472.167,813.5 469.5,813.5C 469.5,791.167 469.5,768.833 469.5,746.5 Z"/></g>
<g><path style="opacity:1" fill="#3c3d46" d="M 515.5,833.5 C 515.5,833.833 515.5,834.167 515.5,834.5C 512.5,834.5 509.5,834.5 506.5,834.5C 506.5,797.833 506.5,761.167 506.5,724.5C 507.167,760.669 507.833,797.002 508.5,833.5C 508.181,798.436 508.514,763.103 509.5,727.5C 510.584,726.335 511.417,725.002 512,723.5C 512.667,724.167 513.333,724.833 514,725.5C 514.167,761.669 514.667,797.669 515.5,833.5 Z"/></g>
<g><path style="opacity:1" fill="#2b2c3d" d="M 477.5,724.5 C 477.5,740.167 477.5,755.833 477.5,771.5C 476.504,784.99 476.171,798.656 476.5,812.5C 474.5,812.5 472.5,812.5 470.5,812.5C 470.5,793.5 470.5,774.5 470.5,755.5C 471.167,746.325 471.833,736.991 472.5,727.5C 473.948,720.922 475.115,720.922 476,727.5C 476.083,725.494 476.583,724.494 477.5,724.5 Z"/></g>
<g><path style="opacity:1" fill="#2d2e37" d="M 507.5,851.5 C 510.5,851.5 513.5,851.5 516.5,851.5C 516.5,855.167 516.5,858.833 516.5,862.5C 513.5,862.5 510.5,862.5 507.5,862.5C 507.5,858.833 507.5,855.167 507.5,851.5 Z"/></g>
<g><path style="opacity:1" fill="#8e9094" d="M 507.5,851.5 C 507.5,855.167 507.5,858.833 507.5,862.5C 510.5,862.5 513.5,862.5 516.5,862.5C 513.375,863.479 510.042,863.813 506.5,863.5C 506.183,859.298 506.517,855.298 507.5,851.5 Z"/></g>
</svg>
