<?xml version="1.0" encoding="UTF-8"?>
<!DOCTYPE svg PUBLIC "-//W3C//DTD SVG 1.1//EN" "http://www.w3.org/Graphics/SVG/1.1/DTD/svg11.dtd">
<svg xmlns="http://www.w3.org/2000/svg" version="1.1" width="1024px" height="1024px" style="shape-rendering:geometricPrecision; text-rendering:geometricPrecision; image-rendering:optimizeQuality; fill-rule:evenodd; clip-rule:evenodd" xmlns:xlink="http://www.w3.org/1999/xlink">
<g><path style="opacity:1" fill="#fefefe" d="M -0.5,-0.5 C 340.833,-0.5 682.167,-0.5 1023.5,-0.5C 1023.5,340.833 1023.5,682.167 1023.5,1023.5C 682.167,1023.5 340.833,1023.5 -0.5,1023.5C -0.5,682.167 -0.5,340.833 -0.5,-0.5 Z"/></g>
<g><path style="opacity:1" fill="#020202" d="M 248.5,329.5 C 234.323,329.829 220.323,329.496 206.5,328.5C 236.03,268.797 279.363,221.63 336.5,187C 418.216,138.883 505.216,126.216 597.5,149C 691.339,176.512 762.505,232.679 811,317.5C 848.664,384.181 862.331,455.514 852,531.5C 845.019,511.698 833.852,494.698 818.5,480.5C 816.346,417.202 797.179,359.869 761,308.5C 721.206,253.064 669.04,213.897 604.5,191C 479.565,155.654 372.731,185.154 284,279.5C 270.929,295.317 259.095,311.984 248.5,329.5 Z"/></g>
<g><path style="opacity:1" fill="#020202" d="M 463.5,555.5 C 452.012,556.495 440.345,556.828 428.5,556.5C 416.785,552.747 411.952,544.747 414,532.5C 416.131,528.53 419.298,525.863 423.5,524.5C 429.206,524.829 434.872,524.495 440.5,523.5C 440.376,522.893 440.043,522.56 439.5,522.5C 397.01,444.838 331.51,406.505 243,407.5C 242.503,410.146 242.336,412.813 242.5,415.5C 227.901,416.585 216.568,411.085 208.5,399C 191.732,395.312 185.898,385.145 191,368.5C 193.892,362.608 198.392,358.441 204.5,356C 245.833,355.333 287.167,355.333 328.5,356C 330.952,356.29 333.285,356.956 335.5,358C 340.544,363.376 345.211,369.042 349.5,375C 352.659,378.082 356.325,380.416 360.5,382C 382.146,383.073 403.813,383.906 425.5,384.5C 445.506,407.408 470.84,419.408 501.5,420.5C 506.68,421.815 512.014,421.815 517.5,420.5C 517.376,419.893 517.043,419.56 516.5,419.5C 495.411,415.863 476.078,408.029 458.5,396C 450.427,390.6 444.594,383.433 441,374.5C 439.713,368.982 440.713,363.982 444,359.5C 451.173,351.498 459.673,345.331 469.5,341C 502.769,325.647 537.769,318.813 574.5,320.5C 573.58,325.193 571.913,329.693 569.5,334C 540.609,334.054 512.609,338.887 485.5,348.5C 484.711,348.783 484.044,349.283 483.5,350C 486.039,350.796 488.372,350.629 490.5,349.5C 516.491,348.455 542.491,348.288 568.5,349C 589.803,360.157 612.136,362.491 635.5,356C 654.779,348.734 663.279,334.9 661,314.5C 652.707,294.875 638.541,281.375 618.5,274C 611.261,271.69 603.927,269.69 596.5,268C 586.208,262.003 583.375,253.503 588,242.5C 591.401,237.38 596.234,234.713 602.5,234.5C 625.262,239.05 645.929,248.217 664.5,262C 682.57,274.736 698.737,289.569 713,306.5C 722.907,319.651 729.574,334.317 733,350.5C 735.407,376.856 724.24,394.689 699.5,404C 687.115,407.513 674.781,411.179 662.5,415C 647.612,420.889 636.112,430.722 628,444.5C 621,457.167 615.666,470.5 612,484.5C 609.157,498.207 606.157,511.873 603,525.5C 602.96,496.42 591.46,473.087 568.5,455.5C 586.712,441.894 606.712,431.727 628.5,425C 630.5,423.667 632.5,422.333 634.5,421C 610.154,417.148 586.154,418.815 562.5,426C 552.17,429.828 543.17,435.662 535.5,443.5C 503.363,437.045 477.197,446.712 457,472.5C 444.931,491.193 442.265,511.193 449,532.5C 452.346,541.211 457.179,548.878 463.5,555.5 Z"/></g>
<g><path style="opacity:1" fill="#efefef" d="M 677.5,291.5 C 677.5,292.167 677.5,292.833 677.5,293.5C 662.992,282.498 648.326,271.665 633.5,261C 627.274,257.22 620.607,254.553 613.5,253C 612.594,251.301 612.261,249.467 612.5,247.5C 624.675,249.723 635.675,254.556 645.5,262C 656.663,271.331 667.33,281.165 677.5,291.5 Z"/></g>
<g><path style="opacity:1" fill="#030303" d="M 596.5,292.5 C 608.838,292.333 621.171,292.5 633.5,293C 636.951,296.74 640.285,300.573 643.5,304.5C 640.574,305.922 638.074,307.922 636,310.5C 635.161,315.921 635.494,321.254 637,326.5C 639.185,327.67 641.351,328.836 643.5,330C 640.973,334.772 637.307,338.438 632.5,341C 620.5,341.667 608.5,341.667 596.5,341C 592.649,338.64 589.982,335.307 588.5,331C 590.746,328.613 592.912,326.113 595,323.5C 597.58,314.789 595.08,308.122 587.5,303.5C 590.175,299.499 593.175,295.832 596.5,292.5 Z"/></g>
<g><path style="opacity:1" fill="#787878" d="M 677.5,291.5 C 679.982,292.804 681.149,294.804 681,297.5C 679.624,296.295 678.458,294.962 677.5,293.5C 677.5,292.833 677.5,292.167 677.5,291.5 Z"/></g>
<g><path style="opacity:1" fill="#f7f7f7" d="M 704.5,310.5 C 705.833,310.5 707.167,310.5 708.5,310.5C 708.448,325.799 710.448,340.799 714.5,355.5C 702.952,353.787 696.119,347.12 694,335.5C 693.149,329.747 693.483,324.08 695,318.5C 697.161,314.495 700.328,311.829 704.5,310.5 Z"/></g>
<g><path style="opacity:1" fill="#2a2a2a" d="M 206.5,328.5 C 220.323,329.496 234.323,329.829 248.5,329.5C 234.328,330.826 219.994,330.826 205.5,329.5C 205.624,328.893 205.957,328.56 206.5,328.5 Z"/></g>
<g><path style="opacity:1" fill="#595959" d="M 485.5,348.5 C 486.919,349.451 488.585,349.784 490.5,349.5C 488.372,350.629 486.039,350.796 483.5,350C 484.044,349.283 484.711,348.783 485.5,348.5 Z"/></g>
<g><path style="opacity:1" fill="#f5f5f5" d="M 282.5,367.5 C 296.171,367.333 309.837,367.5 323.5,368C 328.996,378.492 335.663,388.159 343.5,397C 337.5,397.667 331.5,397.667 325.5,397C 320.927,389.756 315.593,383.09 309.5,377C 306.382,375.107 303.049,373.774 299.5,373C 290.174,371.956 280.84,370.956 271.5,370C 275.312,369.205 278.979,368.371 282.5,367.5 Z"/></g>
<g><path style="opacity:1" fill="#040404" d="M 173.5,410.5 C 183.806,416.321 194.139,422.155 204.5,428C 206.215,428.777 207.215,430.11 207.5,432C 206.137,442.831 204.803,453.665 203.5,464.5C 186.472,472.695 173.972,485.362 166,502.5C 163.754,471.456 166.254,440.789 173.5,410.5 Z"/></g>
<g><path style="opacity:1" fill="#5d5d5d" d="M 516.5,419.5 C 517.043,419.56 517.376,419.893 517.5,420.5C 512.014,421.815 506.68,421.815 501.5,420.5C 506.695,420.821 511.695,420.487 516.5,419.5 Z"/></g>
<g><path style="opacity:1" fill="#030303" d="M 678.5,425.5 C 693.334,460.52 707.667,495.853 721.5,531.5C 736.269,530.97 748.436,536.303 758,547.5C 765.908,559.651 767.575,572.651 763,586.5C 750.128,607.346 732.295,613.179 709.5,604C 694.46,594.241 688.293,580.407 691,562.5C 692.565,556.87 695.065,551.703 698.5,547C 683.841,511.028 669.174,475.028 654.5,439C 654.645,438.228 654.978,437.561 655.5,437C 663.786,434.191 671.452,430.357 678.5,425.5 Z"/></g>
<g><path style="opacity:1" fill="#020202" d="M 508.5,457.5 C 546.854,454.747 572.354,471.413 585,507.5C 591.964,539.606 583.131,566.439 558.5,588C 548.34,595.41 537.006,600.077 524.5,602C 486.167,602.667 447.833,602.667 409.5,602C 400.495,600.446 392.495,596.78 385.5,591C 381.333,586.833 377.167,582.667 373,578.5C 359.024,560.356 344.857,542.356 330.5,524.5C 348.59,507.907 367.423,492.241 387,477.5C 396.985,486.461 405.818,496.461 413.5,507.5C 390.609,519.725 385.776,537.059 399,559.5C 404.677,566.419 411.843,570.919 420.5,573C 451.833,573.667 483.167,573.667 514.5,573C 539.894,568.436 554.228,553.269 557.5,527.5C 555.784,504.791 543.784,491.791 521.5,488.5C 512.327,488.503 505.494,492.503 501,500.5C 499.193,504.756 497.693,509.089 496.5,513.5C 483.823,513.679 478.656,520.012 481,532.5C 483.233,538.456 487.567,541.456 494,541.5C 499.526,541.074 503.526,538.407 506,533.5C 508.848,525.105 511.848,516.772 515,508.5C 523.547,501.277 531.213,502.277 538,511.5C 544.024,522.948 543.69,534.281 537,545.5C 529.248,554.976 519.248,558.976 507,557.5C 488.524,558.348 474.857,550.681 466,534.5C 454.695,501.081 464.861,476.581 496.5,461C 500.623,459.808 504.623,458.641 508.5,457.5 Z"/></g>
<g><path style="opacity:1" fill="#020202" d="M 764.5,671.5 C 763.957,671.56 763.624,671.893 763.5,672.5C 779.328,673.167 794.995,673.833 810.5,674.5C 772.967,733.536 722.967,778.703 660.5,810C 544.451,861.646 432.118,854.646 323.5,789C 277.149,758.982 239.149,720.649 209.5,674C 219.327,673.974 228.994,673.308 238.5,672C 195.535,651.93 173.201,618.097 171.5,570.5C 173.548,526.887 193.881,495.054 232.5,475C 262.774,461.728 292.608,462.561 322,477.5C 321.3,481.599 319.967,485.599 318,489.5C 314.971,493.562 312.471,497.895 310.5,502.5C 308.743,503.292 307.409,504.625 306.5,506.5C 310.589,512.692 314.089,519.026 317,525.5C 302.11,538.358 286.943,550.858 271.5,563C 267.583,565.834 266.749,569.334 269,573.5C 276.156,577.041 279.823,574.707 280,566.5C 293.687,554.645 307.52,542.979 321.5,531.5C 339.521,555.028 357.187,578.861 374.5,603C 363.43,634.568 342.763,657.401 312.5,671.5C 311.957,671.56 311.624,671.893 311.5,672.5C 323.482,673.499 335.482,673.832 347.5,673.5C 461.5,673.667 575.5,673.5 689.5,673C 689.957,672.586 690.291,672.086 690.5,671.5C 643.992,648.844 621.826,611.511 624,559.5C 624.65,551.28 626.317,543.28 629,535.5C 632.26,527.32 635.76,519.32 639.5,511.5C 634.981,511.273 630.981,509.773 627.5,507C 633.39,497.11 640.724,488.443 649.5,481C 650.167,480.333 650.833,480.333 651.5,481C 658.962,498.094 666.296,515.26 673.5,532.5C 657.014,559.104 657.514,585.437 675,611.5C 696.855,637.339 723.689,644.173 755.5,632C 786.032,615.098 798.532,589.265 793,554.5C 782.589,524.273 761.422,506.94 729.5,502.5C 723.353,487.708 717.353,472.875 711.5,458C 733.518,455.011 752.852,460.678 769.5,475C 800.928,490.107 821.095,514.607 830,548.5C 837.881,598.222 821.048,637.055 779.5,665C 774.712,667.729 769.712,669.896 764.5,671.5 Z"/></g>
<g><path style="opacity:1" fill="#040404" d="M 310.5,502.5 C 322.295,492.542 333.962,482.376 345.5,472C 355.369,465.964 366.036,463.964 377.5,466C 379.286,466.196 380.619,467.029 381.5,468.5C 376.015,474.485 370.348,480.319 364.5,486C 351.667,496.833 338.833,507.667 326,518.5C 319.958,513.959 314.792,508.626 310.5,502.5 Z"/></g>
<g><path style="opacity:1" fill="#fcfcfc" d="M 264.5,504.5 C 271.841,504.334 279.174,504.5 286.5,505C 290.743,505.892 294.743,507.392 298.5,509.5C 291.585,516.316 284.585,523.149 277.5,530C 270.014,532.046 262.68,534.712 255.5,538C 237.68,551.116 232.846,567.949 241,588.5C 251.392,605.277 266.225,611.444 285.5,607C 291.66,604.423 297.327,601.09 302.5,597C 314.667,586.833 326.833,576.667 339,566.5C 340.362,598.972 326.195,621.472 296.5,634C 259.229,643.779 231.729,631.612 214,597.5C 202.448,563.89 210.948,536.39 239.5,515C 247.474,510.338 255.807,506.838 264.5,504.5 Z"/></g>
<g><path style="opacity:1" fill="#a6a6a6" d="M 439.5,522.5 C 440.043,522.56 440.376,522.893 440.5,523.5C 434.872,524.495 429.206,524.829 423.5,524.5C 428.833,523.833 434.167,523.167 439.5,522.5 Z"/></g>
<g><path style="opacity:1" fill="#f5f4f5" d="M 715.5,539.5 C 716.496,539.414 717.329,539.748 718,540.5C 722.737,550.876 727.57,561.209 732.5,571.5C 730.912,574.257 728.579,575.09 725.5,574C 723.623,571.749 722.123,569.249 721,566.5C 718.11,558.388 714.944,550.388 711.5,542.5C 712.901,541.479 714.235,540.479 715.5,539.5 Z"/></g>
<g><path style="opacity:1" fill="#2a2a2a" d="M 463.5,555.5 C 464.043,555.56 464.376,555.893 464.5,556.5C 452.34,557.825 440.34,557.825 428.5,556.5C 440.345,556.828 452.012,556.495 463.5,555.5 Z"/></g>
<g><path style="opacity:1" fill="#cacaca" d="M 312.5,671.5 C 324.167,672.167 335.833,672.833 347.5,673.5C 335.482,673.832 323.482,673.499 311.5,672.5C 311.624,671.893 311.957,671.56 312.5,671.5 Z"/></g>
<g><path style="opacity:1" fill="#717171" d="M 764.5,671.5 C 780.005,672.167 795.672,672.833 811.5,673.5C 811.376,674.107 811.043,674.44 810.5,674.5C 794.995,673.833 779.328,673.167 763.5,672.5C 763.624,671.893 763.957,671.56 764.5,671.5 Z"/></g>
<g><path style="opacity:1" fill="#f9f9f9" d="M 713.5,722.5 C 713.167,723.167 712.833,723.833 712.5,724.5C 639.646,733.621 566.479,737.288 493,735.5C 430.572,736.196 368.405,732.362 306.5,724C 309.597,722.39 312.931,721.39 316.5,721C 415.637,711.244 514.97,708.911 614.5,714C 647.672,715.052 680.672,717.885 713.5,722.5 Z"/></g>
<g><path style="opacity:1" fill="#979797" d="M 713.5,722.5 C 715.288,722.215 716.955,722.548 718.5,723.5C 716.604,724.466 714.604,724.799 712.5,724.5C 712.833,723.833 713.167,723.167 713.5,722.5 Z"/></g>
<g><path style="opacity:1" fill="#707070" d="M 397.5,772.5 C 388.167,773.167 378.833,773.833 369.5,774.5C 368.527,774.013 367.527,773.513 366.5,773C 376.828,772.5 387.161,772.334 397.5,772.5 Z"/></g>
<g><path style="opacity:1" fill="#fbfbfb" d="M 600.5,772.5 C 618.167,773.167 635.833,773.833 653.5,774.5C 626.641,784.202 598.974,790.702 570.5,794C 517.126,799.085 464.126,796.752 411.5,787C 397.142,783.935 383.142,779.769 369.5,774.5C 378.833,773.833 388.167,773.167 397.5,772.5C 465.167,771.234 532.834,771.234 600.5,772.5 Z"/></g>
<g><path style="opacity:1" fill="#909090" d="M 600.5,772.5 C 618.836,772.333 637.17,772.5 655.5,773C 654.956,773.717 654.289,774.217 653.5,774.5C 635.833,773.833 618.167,773.167 600.5,772.5 Z"/></g>
<g><path style="opacity:1" fill="#f7f7f7" d="M 431.5,883.5 C 431.5,884.833 431.5,886.167 431.5,887.5C 428.813,887.664 426.146,887.497 423.5,887C 424.938,886.781 426.271,886.281 427.5,885.5C 423.5,884.167 419.5,884.167 415.5,885.5C 416.729,886.281 418.062,886.781 419.5,887C 414.177,887.499 408.844,887.666 403.5,887.5C 403.5,888.833 403.5,890.167 403.5,891.5C 399.5,891.5 395.5,891.5 391.5,891.5C 391.5,892.833 391.5,894.167 391.5,895.5C 384.833,895.5 378.167,895.5 371.5,895.5C 371.5,896.833 371.5,898.167 371.5,899.5C 367.5,899.5 363.5,899.5 359.5,899.5C 359.5,900.833 359.5,902.167 359.5,903.5C 356.833,903.5 354.167,903.5 351.5,903.5C 351.5,904.833 351.5,906.167 351.5,907.5C 358.167,907.5 364.833,907.5 371.5,907.5C 371.5,908.833 371.5,910.167 371.5,911.5C 378.167,911.5 384.833,911.5 391.5,911.5C 391.5,912.833 391.5,914.167 391.5,915.5C 468.833,915.5 546.167,915.5 623.5,915.5C 623.5,914.167 623.5,912.833 623.5,911.5C 631.5,911.5 639.5,911.5 647.5,911.5C 647.5,910.167 647.5,908.833 647.5,907.5C 650.167,907.5 652.833,907.5 655.5,907.5C 655.5,904.833 655.5,902.167 655.5,899.5C 650.167,899.5 644.833,899.5 639.5,899.5C 639.5,898.167 639.5,896.833 639.5,895.5C 634.167,895.5 628.833,895.5 623.5,895.5C 623.5,894.167 623.5,892.833 623.5,891.5C 618.167,891.5 612.833,891.5 607.5,891.5C 607.5,889.5 607.5,887.5 607.5,885.5C 601.974,885.821 596.64,885.488 591.5,884.5C 595.697,884.571 599.863,884.237 604,883.5C 631.904,884.887 659.737,886.554 687.5,888.5C 687.5,889.5 687.5,890.5 687.5,891.5C 698.185,891.39 708.852,891.723 719.5,892.5C 719.5,893.5 719.5,894.5 719.5,895.5C 722.167,895.5 724.833,895.5 727.5,895.5C 727.5,896.833 727.5,898.167 727.5,899.5C 732.833,899.5 738.167,899.5 743.5,899.5C 743.5,903.5 743.5,907.5 743.5,911.5C 740.833,911.5 738.167,911.5 735.5,911.5C 735.5,912.833 735.5,914.167 735.5,915.5C 731.5,915.5 727.5,915.5 723.5,915.5C 723.5,916.833 723.5,918.167 723.5,919.5C 719.5,919.5 715.5,919.5 711.5,919.5C 711.5,920.833 711.5,922.167 711.5,923.5C 698.167,923.5 684.833,923.5 671.5,923.5C 671.5,924.833 671.5,926.167 671.5,927.5C 655.5,927.5 639.5,927.5 623.5,927.5C 623.5,928.833 623.5,930.167 623.5,931.5C 559.5,931.5 495.5,931.5 431.5,931.5C 431.5,930.167 431.5,928.833 431.5,927.5C 398.167,927.5 364.833,927.5 331.5,927.5C 331.5,926.167 331.5,924.833 331.5,923.5C 323.5,923.5 315.5,923.5 307.5,923.5C 307.5,922.167 307.5,920.833 307.5,919.5C 300.833,919.5 294.167,919.5 287.5,919.5C 287.5,918.167 287.5,916.833 287.5,915.5C 282.167,915.5 276.833,915.5 271.5,915.5C 271.5,914.167 271.5,912.833 271.5,911.5C 272.833,911.5 274.167,911.5 275.5,911.5C 275.5,906.167 275.5,900.833 275.5,895.5C 280.833,895.5 286.167,895.5 291.5,895.5C 291.5,894.167 291.5,892.833 291.5,891.5C 300.833,892.833 310.167,892.833 319.5,891.5C 319.5,890.5 319.5,889.5 319.5,888.5C 336.202,887.489 352.869,886.156 369.5,884.5C 371.471,884.996 373.471,885.33 375.5,885.5C 394.152,884.5 412.819,883.834 431.5,883.5 Z"/></g>
<g><path style="opacity:1" fill="#f0f0f0" d="M 431.5,883.5 C 485.003,883.168 538.336,883.501 591.5,884.5C 596.64,885.488 601.974,885.821 607.5,885.5C 607.5,887.5 607.5,889.5 607.5,891.5C 612.833,891.5 618.167,891.5 623.5,891.5C 623.5,892.833 623.5,894.167 623.5,895.5C 628.833,895.5 634.167,895.5 639.5,895.5C 639.5,896.833 639.5,898.167 639.5,899.5C 644.833,899.5 650.167,899.5 655.5,899.5C 655.5,902.167 655.5,904.833 655.5,907.5C 652.833,907.5 650.167,907.5 647.5,907.5C 647.5,908.833 647.5,910.167 647.5,911.5C 639.5,911.5 631.5,911.5 623.5,911.5C 623.5,912.833 623.5,914.167 623.5,915.5C 546.167,915.5 468.833,915.5 391.5,915.5C 391.5,914.167 391.5,912.833 391.5,911.5C 384.833,911.5 378.167,911.5 371.5,911.5C 371.5,910.167 371.5,908.833 371.5,907.5C 364.833,907.5 358.167,907.5 351.5,907.5C 351.5,906.167 351.5,904.833 351.5,903.5C 354.167,903.5 356.833,903.5 359.5,903.5C 359.5,902.167 359.5,900.833 359.5,899.5C 363.5,899.5 367.5,899.5 371.5,899.5C 371.5,898.167 371.5,896.833 371.5,895.5C 378.167,895.5 384.833,895.5 391.5,895.5C 391.5,894.167 391.5,892.833 391.5,891.5C 395.5,891.5 399.5,891.5 403.5,891.5C 403.5,890.167 403.5,888.833 403.5,887.5C 408.844,887.666 414.177,887.499 419.5,887C 418.062,886.781 416.729,886.281 415.5,885.5C 419.5,884.167 423.5,884.167 427.5,885.5C 426.271,886.281 424.938,886.781 423.5,887C 426.146,887.497 428.813,887.664 431.5,887.5C 431.5,886.167 431.5,884.833 431.5,883.5 Z"/></g>
</svg>
